<svg id="Grupo_8440" data-name="Grupo 8440" xmlns="http://www.w3.org/2000/svg" xmlns:xlink="http://www.w3.org/1999/xlink" viewBox="0 0 66.33 66.33"><defs><style>.cls-1{fill:none;}.cls-2{clip-path:url(#clip-path);}.cls-3{fill:#67c1e3;}.cls-4{fill:#a36b62;}.cls-5{fill:#844e4e;}.cls-6{fill:#1b2037;}</style><clipPath id="clip-path"><rect class="cls-1" width="66.33" height="66.33"/></clipPath></defs><g class="cls-2"><path id="Trazado_5473" data-name="Trazado 5473" class="cls-3" d="M0,33.17A33.17,33.17,0,1,1,33.17,66.33h0A33.17,33.17,0,0,1,0,33.17"/><path id="Trazado_5474" data-name="Trazado 5474" class="cls-4" d="M49.46,32.9c0-8.6-7.88-15.58-17.59-15.58a20,20,0,0,0-4.29.49,18,18,0,0,0-10.47,6.68,15.61,15.61,0,0,0-2.51,5.44,29.46,29.46,0,0,0-.47,7.44,61.59,61.59,0,0,0,0,7.06A14.38,14.38,0,0,0,20.63,54.8c4.17,2.69,9.61,1.46,13.88-.37a26.52,26.52,0,0,0,10.58-8.26,22.19,22.19,0,0,0,4.36-12.84V32.9"/><path id="Trazado_5475" data-name="Trazado 5475" class="cls-5" d="M45.05,35.34c-1.49-.28-3.18,1.67-3.77,4.36s.13,5.09,1.62,5.37,3.18-1.68,3.78-4.36-.14-5.1-1.63-5.37"/><path id="Trazado_5476" data-name="Trazado 5476" class="cls-5" d="M29.37,46c0,.07-1.14,1.63-4.09,1.63s-4-1.55-4.09-1.62a.55.55,0,0,0-.91.61c0,.08,1.44,2.11,5,2.11s4.95-2,5-2.11a.56.56,0,0,0-.16-.77.57.57,0,0,0-.76.15"/><path id="Trazado_5477" data-name="Trazado 5477" class="cls-6" d="M17.24,39.46v.73a1.08,1.08,0,0,0,1.08,1.08h0a1.07,1.07,0,0,0,1.07-1.08v-.73a1.08,1.08,0,1,0-2.15,0h0"/><path id="Trazado_5478" data-name="Trazado 5478" class="cls-6" d="M32.25,41.27a1.07,1.07,0,0,0,1.07-1.08h0v-.73a1.08,1.08,0,1,0-2.15,0h0v.73a1.08,1.08,0,0,0,1.08,1.08"/><path id="Trazado_5479" data-name="Trazado 5479" class="cls-5" d="M31.47,43a1.1,1.1,0,0,0-.24,2.19,1.7,1.7,0,0,1,1.1.52,1.1,1.1,0,1,0,1.93-1.07A3.8,3.8,0,0,0,31.47,43"/><path id="Trazado_5480" data-name="Trazado 5480" class="cls-5" d="M20.31,44a1.1,1.1,0,0,0-1.21-1h0a3.82,3.82,0,0,0-2.8,1.64,1.1,1.1,0,0,0,1.93,1.07,1.7,1.7,0,0,1,1.1-.52,1.11,1.11,0,0,0,1-1.21"/><path id="Trazado_5481" data-name="Trazado 5481" class="cls-6" d="M35.45,35.55c-1.56-1.2-4.3-.9-4.6-.87a.71.71,0,0,0-.61.78.7.7,0,0,0,.78.61c.68-.08,2.64-.13,3.58.59a.7.7,0,0,0,1-.13.71.71,0,0,0-.13-1"/><path id="Trazado_5482" data-name="Trazado 5482" class="cls-6" d="M19.55,36.08a.71.71,0,0,0,.78-.61.7.7,0,0,0-.61-.78h0c-.31,0-3-.34-4.6.86A.7.7,0,0,0,16,36.66c.94-.72,2.9-.66,3.58-.58"/><path id="Trazado_5483" data-name="Trazado 5483" class="cls-6" d="M48.33,22a12.71,12.71,0,0,1,2,.46,8.66,8.66,0,0,0-10-7.08,9.05,9.05,0,0,0-1,.24,9,9,0,0,1,4.87-1.84A11.73,11.73,0,0,0,33,13.61a13.36,13.36,0,0,1,3.74-2.47,21.33,21.33,0,0,0-12.3,2,10.84,10.84,0,0,1,3.3-3.44,12.4,12.4,0,0,0-6,1.68,9.72,9.72,0,0,0-4.36,5.3,7.4,7.4,0,0,0-.27,1.15,1.42,1.42,0,0,1-.42.81,9.68,9.68,0,0,0-1.92,11.2,10.36,10.36,0,0,1,3.71-6.11,9.59,9.59,0,0,0,3.36,2.7c1.33.69,3,1.78,4.57,1.57a9.32,9.32,0,0,0,3.86-1.7A44.19,44.19,0,0,1,34.11,24,6.75,6.75,0,0,1,38,22.87c1.9.24,2.63,2.3,3.19,3.86.42,1.14-.17,2.08-.64,3.17s-1,2.29-1.47,3.44c-.25.63.42,1,.83,1.24,1.25.8.64,2.2.2,3.37-.18.48-.41.71-.2,1.24.27.73,1.28,1.55,1.79.58a7.09,7.09,0,0,1,1.94-2.44,10.45,10.45,0,0,1,2.94-1.49h0A13.36,13.36,0,0,1,45.24,46c5.58-5,8-12.85,7.22-17.38A10.5,10.5,0,0,0,48.33,22"/></g></svg>