<?xml version="1.0" encoding="utf-8"?>
<!-- Generator: Adobe Illustrator 25.2.0, SVG Export Plug-In . SVG Version: 6.00 Build 0)  -->
<svg version="1.1" id="Capa_1" xmlns="http://www.w3.org/2000/svg" xmlns:xlink="http://www.w3.org/1999/xlink" x="0px" y="0px"
	 viewBox="0 0 65.9 65.9" style="enable-background:new 0 0 65.9 65.9;" xml:space="preserve">
<style type="text/css">
	.st0{fill:#FFFFFF;}
	.st1{fill:#2D3C74;}
	.st2{fill:#FDBF00;}
	.st3{fill:#00DEC2;}
	.st4{fill:#F13700;}
	.st5{fill:#A3D8F5;}
	.st6{fill:#00CBF3;}
	.st7{fill:#F6C358;}
	.st8{fill:#FCD462;}
	.st9{fill:#2F4859;}
</style>
<path class="st0" d="M62.6,65.9H3.3c-1.8,0-3.3-1.5-3.3-3.3V3.3C0,1.5,1.5,0,3.3,0h59.3c1.8,0,3.3,1.5,3.3,3.3v59.3
	C65.9,64.5,64.5,65.9,62.6,65.9z"/>
<path class="st1" d="M65.9,3.3c0-1.8-1.5-3.3-3.3-3.3H3.3C1.5,0,0,1.5,0,3.3v13.3h65.9V3.3z"/>
<path class="st2" d="M52.2,7.3c0,1.5-1.2,2.6-2.6,2.6c-1.5,0-2.6-1.2-2.6-2.6c0-1.5,1.2-2.6,2.6-2.6c0,0,0,0,0,0
	C51,4.7,52.2,5.9,52.2,7.3C52.2,7.3,52.2,7.3,52.2,7.3z"/>
<path class="st3" d="M60,7.3c0,1.5-1.2,2.6-2.6,2.6c-1.5,0-2.6-1.2-2.6-2.6s1.2-2.6,2.6-2.6C58.8,4.7,60,5.9,60,7.3
	C60,7.3,60,7.3,60,7.3z"/>
<path class="st4" d="M44.4,7.3c0,1.5-1.2,2.6-2.6,2.6c-1.5,0-2.6-1.2-2.6-2.6s1.2-2.6,2.6-2.6C43.2,4.7,44.4,5.9,44.4,7.3
	C44.4,7.3,44.4,7.3,44.4,7.3z"/>
<path class="st5" d="M36.1,25.1L36.1,25.1c-1-0.2-2.1-0.3-3.1-0.3c-1,0-2.1,0.1-3.1,0.3l0,0c-9.1,1.8-15,10.7-13.1,19.8
	s10.7,15,19.8,13.1C44.4,56.4,50,49.6,50,41.6C49.9,33.5,44.1,26.5,36.1,25.1z"/>
<path class="st6" d="M46,39.6h-5.3c-0.1-3.2-0.6-6.3-1.5-9.4C42.8,32.1,45.4,35.6,46,39.6z"/>
<path class="st6" d="M34.5,28.8c1.3,2.4,2.1,6.4,2.3,10.9h-7.7c0.2-4.4,1-8.5,2.3-10.9c0.5-0.1,1-0.1,1.6-0.1
	C33.5,28.7,34,28.7,34.5,28.8z"/>
<path class="st6" d="M26.7,30.2c-0.9,3.1-1.4,6.2-1.5,9.4h-5.3C20.6,35.6,23.1,32.1,26.7,30.2z"/>
<path class="st6" d="M19.9,43.5h5.3c0.1,3.2,0.6,6.3,1.5,9.4C23.1,51,20.6,47.5,19.9,43.5z"/>
<path class="st6" d="M31.4,54.4c-1.3-2.4-2.1-6.4-2.3-10.9h7.7c-0.2,4.4-1,8.5-2.3,10.9C33.5,54.5,32.5,54.5,31.4,54.4z"/>
<path class="st6" d="M39.2,52.9c0.9-3.1,1.4-6.2,1.5-9.4H46C45.4,47.5,42.8,51,39.2,52.9z"/>
<path class="st7" d="M52,36.4H13.9c-0.6,0-1.1,0.5-1.1,1.1V47c0,0.6,0.5,1.1,1.1,1.1H52c0.6,0,1.1-0.5,1.1-1.1v-9.5
	C53.1,36.9,52.6,36.4,52,36.4z"/>
<path class="st8" d="M52,35.1H13.9c-0.6,0-1.1,0.5-1.1,1.1v9.4c0,0.6,0.5,1.1,1.1,1.1l0,0H52c0.6,0,1.1-0.5,1.1-1.1v-9.4
	C53.1,35.6,52.6,35.1,52,35.1z"/>
<path class="st9" d="M22.5,43.6h-1.3l-1.9-5.4h1.2l1.3,4.1l1.4-4.1h1.2l1.3,4.1l1.4-4.1h1.2l-1.9,5.4h-1.3l-1.3-3.7L22.5,43.6z"/>
<path class="st9" d="M31.7,43.6h-1.3l-1.9-5.4h1.2l1.3,4.1l1.3-4.1h1.2l1.3,4.1l1.3-4.1h1.2l-1.9,5.4h-1.3L33,39.9L31.7,43.6z"/>
<path class="st9" d="M40.8,43.6h-1.3l-1.9-5.4h1.2l1.3,4.1l1.3-4.1h1.2l1.3,4.1l1.3-4.1h1.2l-1.9,5.4h-1.3l-1.3-3.7L40.8,43.6z"/>
</svg>
