<?xml version="1.0" encoding="utf-8"?>
<!-- Generator: Adobe Illustrator 25.0.1, SVG Export Plug-In . SVG Version: 6.00 Build 0)  -->
<svg version="1.1" id="Grupo_8440" xmlns="http://www.w3.org/2000/svg" xmlns:xlink="http://www.w3.org/1999/xlink" x="0px" y="0px"
	 viewBox="0 0 66.3 66.3" style="enable-background:new 0 0 66.3 66.3;" xml:space="preserve">
<style type="text/css">
	.st0{clip-path:url(#SVGID_2_);}
	.st1{fill:#67C1E3;}
	.st2{fill:#FFA898;}
	.st3{fill:#F48989;}
	.st4{fill:#DD7D80;}
	.st5{fill:#532442;}
	.st6{fill:#F8918C;}
	.st7{fill:#521B3B;}
</style>
<g>
	<defs>
		<rect id="SVGID_1_" x="0" y="0" width="66.3" height="66.3"/>
	</defs>
	<clipPath id="SVGID_2_">
		<use xlink:href="#SVGID_1_"  style="overflow:visible;"/>
	</clipPath>
	<g id="Grupo_8439" transform="translate(0 0)" class="st0">
		<path id="Trazado_5473" class="st1" d="M66.3,33.2c0,18.3-14.8,33.2-33.2,33.2c0,0,0,0,0,0C14.8,66.3,0,51.5,0,33.2S14.8,0,33.2,0
			S66.3,14.8,66.3,33.2"/>
		<path id="Trazado_5474" class="st2" d="M16.9,32.9c0,0.1,0,0.3,0,0.4c0.1,4.6,1.6,9.1,4.4,12.8c2.8,3.6,6.4,6.5,10.6,8.3
			c4.3,1.8,9.7,3.1,13.9,0.4c3.6-2.3,6-6.1,6.5-10.4c0.1-2.3,0.2-4.7,0-7.1c0.2-2.5,0-5-0.5-7.4c-0.5-2-1.3-3.8-2.5-5.4
			c-2.6-3.4-6.3-5.8-10.5-6.7c-1.4-0.3-2.8-0.5-4.3-0.5C24.8,17.3,16.9,24.3,16.9,32.9"/>
		<path id="Trazado_5475" class="st3" d="M21.3,35.3c-1.5,0.3-2.2,2.7-1.6,5.4s2.3,4.6,3.8,4.4s2.2-2.7,1.6-5.4S22.8,35.1,21.3,35.3
			"/>
		<path id="Trazado_5476" class="st4" d="M37,46c-0.2-0.2-0.5-0.3-0.8-0.2C36,46,35.9,46.4,36,46.6c0.1,0.1,1.4,2.1,5,2.1s5-2,5-2.1
			c0.2-0.2,0.1-0.6-0.1-0.7c-0.2-0.2-0.6-0.1-0.8,0.1c-0.1,0.1-1.1,1.6-4.1,1.6S37,46.1,37,46"/>
		<path id="Trazado_5477" class="st5" d="M49.1,39.5L49.1,39.5c0-0.6-0.5-1.1-1.1-1.1c-0.6,0-1.1,0.5-1.1,1.1v0.7
			c0,0.6,0.5,1.1,1.1,1.1l0,0l0,0c0.6,0,1.1-0.5,1.1-1.1L49.1,39.5"/>
		<path id="Trazado_5478" class="st5" d="M34.1,41.3c0.6,0,1.1-0.5,1.1-1.1v-0.7l0,0c0-0.6-0.5-1.1-1.1-1.1S33,38.9,33,39.5v0.7l0,0
			C33,40.8,33.5,41.3,34.1,41.3"/>
		<path id="Trazado_5479" class="st6" d="M34.9,43c-1.1,0.1-2.2,0.7-2.8,1.6c-0.3,0.5-0.1,1.2,0.4,1.5c0.5,0.3,1.2,0.1,1.5-0.4
			c0.3-0.3,0.7-0.5,1.1-0.5c0.6-0.1,1-0.6,1-1.2S35.5,42.9,34.9,43"/>
		<path id="Trazado_5480" class="st6" d="M46,44c-0.1,0.6,0.4,1.1,1,1.2c0.4,0,0.8,0.2,1.1,0.5c0.3,0.5,1,0.7,1.5,0.4s0.7-1,0.4-1.5
			c-0.6-0.9-1.7-1.5-2.8-1.6c0,0,0,0,0,0C46.6,42.9,46.1,43.4,46,44"/>
		<path id="Trazado_5481" class="st7" d="M30.9,35.6c-0.3,0.2-0.4,0.7-0.1,1c0.2,0.3,0.7,0.4,1,0.1c0.9-0.7,2.9-0.7,3.6-0.6
			c0.4,0,0.7-0.2,0.8-0.6s-0.2-0.7-0.6-0.8C35.2,34.6,32.4,34.4,30.9,35.6"/>
		<path id="Trazado_5482" class="st7" d="M46.8,36.1c0.7-0.1,2.6-0.1,3.6,0.6c0.3,0.2,0.7,0.2,1-0.1c0.2-0.3,0.2-0.7-0.1-1
			c-1.6-1.2-4.3-0.9-4.6-0.9l0,0c-0.4,0-0.7,0.4-0.6,0.8S46.4,36.1,46.8,36.1"/>
		<path id="Trazado_5483" class="st7" d="M18,22c-2.2,1.6-3.6,4-4.1,6.6C13.1,33.1,15.5,41,21.1,46c-1.8-3.1-2.3-6.7-1.4-10.1h0
			c1.1,0.3,2,0.8,2.9,1.5c0.8,0.7,1.5,1.5,1.9,2.4c0.5,1,1.5,0.2,1.8-0.6c0.2-0.5,0-0.8-0.2-1.2c-0.4-1.2-1.1-2.6,0.2-3.4
			c0.4-0.3,1.1-0.6,0.8-1.2c-0.5-1.2-1-2.3-1.5-3.4c-0.5-1.1-1.1-2-0.6-3.2c0.6-1.6,1.3-3.6,3.2-3.9c1.4,0,2.8,0.4,3.9,1.2
			c1.3,0.7,2.6,1.5,3.9,2.3c1.1,0.9,2.5,1.4,3.9,1.7c1.5,0.2,3.2-0.9,4.6-1.6c1.3-0.6,2.5-1.6,3.4-2.7c1.9,1.5,3.2,3.7,3.7,6.1
			c1.8-3.8,1.1-8.3-1.9-11.2c-0.2-0.2-0.4-0.5-0.4-0.8c-0.1-0.4-0.2-0.8-0.3-1.1c-0.8-2.2-2.3-4.1-4.4-5.3c-1.8-1.1-3.9-1.6-6-1.7
			c1.3,0.9,2.5,2.1,3.3,3.4c-3.8-1.9-8.1-2.6-12.3-2c1.4,0.6,2.6,1.4,3.7,2.5c-3.5-1.9-7.7-1.8-11.2,0.1c1.8,0.1,3.5,0.8,4.9,1.8
			c-0.3-0.1-0.7-0.2-1-0.2c-4.7-0.8-9.2,2.4-10,7.1C16.6,22.2,17.3,22.1,18,22"/>
		<path id="Trazado_5484" class="st7" d="M26.2,41c-0.4,0.2-0.7,0.4-0.9,0.5c-0.2,1.9-0.1,3.9,0.3,5.8c0.2,1.4,0.7,2.7,1.3,3.9
			c1.3,2.1,3.3,3.6,5.7,4.2c1.7,0.6,3.5,1,5.2,1.1c2.6,0.2,5.2,0,7.7-0.8c2.5-0.8,4.4-2.7,5.2-5.2c0.4-1,0.7-2.1,0.9-3.2
			c-0.6,1.1-1.4,2-2.3,2.8c-0.9,0.8-2.4,1.9-3.7,1.9c-1.6-0.1-1.9-1.4-3.3-2c-0.9-0.3-2-0.4-2.9,0c-0.8,0.3-1.4,1-2.1,1.4
			c-1.7,1.1-4.4-0.2-6.1-1.1c-1.6-0.9-3.3-1.7-4.2-3.3c-1-1.7-1.3-3.7-0.9-5.6C26.1,41.2,26.1,41.4,26.2,41"/>
	</g>
</g>
</svg>
